<?xml version="1.0" encoding="utf-8"?>
<!-- Generator: Adobe Illustrator 18.0.0, SVG Export Plug-In . SVG Version: 6.00 Build 0)  -->
<!DOCTYPE svg PUBLIC "-//W3C//DTD SVG 1.1//EN" "http://www.w3.org/Graphics/SVG/1.1/DTD/svg11.dtd">
<svg version="1.1" id="Layer_4" xmlns="http://www.w3.org/2000/svg" xmlns:xlink="http://www.w3.org/1999/xlink" x="0px" y="0px"
	 viewBox="90.5 91 163.3 48" enable-background="new 90.5 91 163.3 48" xml:space="preserve">
<g>
	<g id="XMLID_50_">
		<g id="XMLID_72_">
			<path fill="none" d="M119.9,112.7L107.3,91H90.5l13.9,24l-13.9,24h16.8l12.6-21.8C120.7,115.8,120.7,114.1,119.9,112.7z"/>
			<polygon id="XMLID_80_" fill="#FFC107" points="112.6,129.3 108.6,122.4 99.1,139 107.3,139 112.7,129.5 			"/>
			<path fill="none" d="M119.9,112.7L107.3,91H90.5l13.9,24l-13.9,24h16.8l12.6-21.8C120.7,115.8,120.7,114.1,119.9,112.7z"/>
			<polygon fill="#0F9D58" points="104.3,115 108.6,122.4 99.1,139 90.5,139 			"/>
			<path fill="none" d="M119.9,112.7L107.3,91H90.5l13.9,24l-13.9,24h16.8l12.6-21.8C120.7,115.8,120.7,114.1,119.9,112.7z"/>
			<polygon opacity="0.2" fill="#BF360C" enable-background="new    " points="107.3,138.6 99.3,138.6 99.1,139 107.3,139 
				112.7,129.5 112.6,129.3 			"/>
			<path fill="none" d="M119.9,112.7L107.3,91H90.5l13.9,24l-13.9,24h16.8l12.6-21.8C120.7,115.8,120.7,114.1,119.9,112.7z"/>
			<polygon opacity="0.2" fill="#263238" enable-background="new    " points="90.7,138.6 90.5,139 99.1,139 99.3,138.6 			"/>
			<path fill="none" d="M119.9,112.7L107.3,91H90.5l13.9,24l-13.9,24h16.8l12.6-21.8C120.7,115.8,120.7,114.1,119.9,112.7z"/>
			<polygon opacity="0.2" fill="#FFFFFF" enable-background="new    " points="90.5,139 90.7,139 104.4,115.2 104.3,115 			"/>
			<path fill="none" d="M119.9,112.7L107.3,91H90.5l13.9,24l-13.9,24h16.8l12.6-21.8C120.7,115.8,120.7,114.1,119.9,112.7z"/>
			
				<radialGradient id="XMLID_2_" cx="112.6833" cy="279.36" r="16.5988" gradientTransform="matrix(1 0 0 1 0 -150)" gradientUnits="userSpaceOnUse">
				<stop  offset="0" style="stop-color:#BF360C;stop-opacity:0.2"/>
				<stop  offset="1" style="stop-color:#BF360C;stop-opacity:2.000000e-02"/>
			</radialGradient>
			<polygon id="XMLID_79_" fill="url(#XMLID_2_)" points="112.7,129.5 112.7,129.5 108.6,122.4 107.6,124.2 			"/>
			<path fill="none" d="M119.9,112.7L107.3,91H90.5l13.9,24l-13.9,24h16.8l12.6-21.8C120.7,115.8,120.7,114.1,119.9,112.7z"/>
			
				<radialGradient id="XMLID_3_" cx="112.6361" cy="279.4649" r="16.7336" gradientTransform="matrix(1 0 0 1 0 -150)" gradientUnits="userSpaceOnUse">
				<stop  offset="0" style="stop-color:#263238;stop-opacity:0.2"/>
				<stop  offset="1" style="stop-color:#263238;stop-opacity:2.000000e-02"/>
			</radialGradient>
			<polygon id="XMLID_78_" fill="url(#XMLID_3_)" points="107.6,124.2 108.6,122.4 104.3,115 102.3,118.5 			"/>
			<path fill="none" d="M119.9,112.7L107.3,91H90.5l13.9,24l-13.9,24h16.8l12.6-21.8C120.7,115.8,120.7,114.1,119.9,112.7z"/>
			<g id="XMLID_75_">
				<g id="XMLID_76_">
					<polygon id="XMLID_77_" fill="#4285F4" points="99.1,91 90.5,91 112.7,129.5 117.1,122.1 117.1,122 					"/>
				</g>
			</g>
			<path fill="none" d="M119.9,112.7L107.3,91H90.5l13.9,24l-13.9,24h16.8l12.6-21.8C120.7,115.8,120.7,114.1,119.9,112.7z"/>
			<path fill="#DB4437" d="M119.9,117.2c0.8-1.4,0.8-3.1,0-4.5L107.3,91h-8.2l18,31.1L119.9,117.2z"/>
			<path fill="none" d="M119.9,112.7L107.3,91H90.5l13.9,24l-13.9,24h16.8l12.6-21.8C120.7,115.8,120.7,114.1,119.9,112.7z"/>
			<polygon opacity="0.2" fill="#1A237E" enable-background="new    " points="117.1,122 116.9,121.9 112.7,129.1 90.7,91 90.5,91 
				112.7,129.5 117.1,122.1 			"/>
			<path fill="none" d="M119.9,112.7L107.3,91H90.5l13.9,24l-13.9,24h16.8l12.6-21.8C120.7,115.8,120.7,114.1,119.9,112.7z"/>
			<path opacity="0.2" fill="#FFFFFF" enable-background="new    " d="M107.3,91.3l12.6,21.8c0.4,0.6,0.6,1.3,0.6,2.1
				c0-0.8-0.2-1.7-0.6-2.4L107.3,91H90.5l0.2,0.4H107.3z"/>
			<path fill="none" d="M119.9,112.7L107.3,91H90.5l13.9,24l-13.9,24h16.8l12.6-21.8C120.7,115.8,120.7,114.1,119.9,112.7z"/>
			<path id="XMLID_74_" opacity="0.2" fill="#3E2723" enable-background="new    " d="M117.1,122l2.8-4.8c0.4-0.8,0.6-1.6,0.6-2.4
				c0,0.7-0.2,1.4-0.6,2.1l-2.9,5L117.1,122z"/>
			<path fill="none" d="M119.9,112.7L107.3,91H90.5l13.9,24l-13.9,24h16.8l12.6-21.8C120.7,115.8,120.7,114.1,119.9,112.7z"/>
			
				<radialGradient id="XMLID_4_" cx="90.0796" cy="241.3447" r="50.3814" gradientTransform="matrix(1 0 0 1 0 -150)" gradientUnits="userSpaceOnUse">
				<stop  offset="0" style="stop-color:#FFFFFF;stop-opacity:0.1"/>
				<stop  offset="1" style="stop-color:#FFFFFF;stop-opacity:0"/>
			</radialGradient>
			<path id="XMLID_73_" fill="url(#XMLID_4_)" d="M119.9,112.7L107.3,91H90.5l13.9,24l-13.9,24h16.8l12.6-21.8
				C120.7,115.8,120.7,114.1,119.9,112.7z"/>
		</g>
	</g>
</g>
<g id="XMLID_8_" opacity="0.54">
	<path id="XMLID_104_" d="M181.4,95.2h11.5c11.7,0,19,7.8,19,18.6c0,10.9-7.3,18.6-19,18.6h-11.5V95.2L181.4,95.2z M193.1,126.8
		c8.1,0,13.2-4.5,13.2-13c0-8.4-5-13-13.2-13h-6v26H193.1z"/>
	<rect id="XMLID_103_" x="138.3" y="94.2" fill="none" width="115.2" height="40.7"/>
	<path id="XMLID_102_" d="M176.7,112.1h-17.9v5.5h12.6c-0.4,2.8-1.4,5-2.9,6.5c-1.9,1.9-4.8,3.9-9.9,3.9c-7.9,0-14.1-6.4-14.1-14.3
		s6.2-14.3,14.1-14.3c4.3,0,7.4,1.7,9.7,3.8l3.8-3.8c-3.2-3.1-7.5-5.4-13.4-5.4c-10.8,0-19.9,8.8-19.9,19.6
		c0,10.8,9.1,19.6,19.9,19.6c5.8,0,10.2-1.9,13.7-5.5c3.5-3.5,4.6-8.5,4.6-12.5C177,114.1,176.9,113.1,176.7,112.1z"/>
	<path id="XMLID_86_" d="M253.5,112.1h-17.9v5.5h12.6c-0.4,2.8-1.4,5-2.9,6.5c-1.9,1.9-4.8,3.9-9.9,3.9c-7.9,0-14.1-6.4-14.1-14.3
		s6.2-14.3,14.1-14.3c4.3,0,7.4,1.7,9.7,3.8l3.8-3.8c-3.2-3.1-7.5-5.4-13.4-5.4c-10.8,0-19.9,8.8-19.9,19.6
		c0,10.8,9.1,19.6,19.9,19.6c5.8,0,10.2-1.9,13.7-5.5c3.5-3.5,4.6-8.5,4.6-12.5C253.8,114.1,253.7,113.1,253.5,112.1z"/>
</g>
</svg>
